<?xml version="1.0" encoding="utf-8"?>
<!-- Generator: Adobe Illustrator 23.1.0, SVG Export Plug-In . SVG Version: 6.00 Build 0)  -->
<svg version="1.1" id="Ebene_1" xmlns="http://www.w3.org/2000/svg" xmlns:xlink="http://www.w3.org/1999/xlink" x="0px" y="0px"
	 viewBox="0 0 267.7 303.2" style="enable-background:new 0 0 267.7 303.2;" xml:space="preserve">
<style type="text/css">
	.st0{fill:#86C3D1;}
	.st1{fill:#EAEAEA;}
	.st2{display:none;fill:#303030;}
	.st3{fill:#303030;}
</style>
<path class="st0" d="M133.9,0h133.8l-24.2,272.9l-111.6,30.3L25.2,272.9L0,0H133.9z"/>
<path class="st1" d="M243.5,21.6l-21.7,233.8l-86.7,25.5l-3-260.3L243.5,21.6z"/>
<polygon class="st2" points="30,26 30,63 51,63 74,82 74,6 51,26 "/>
<polygon class="st3" points="38,85 51,239 75,249 70,188 103,255 121,255 79.5,163 121,85 86,85 70,126 60,85 "/>
<polygon class="st3" points="155,86 155,245 172,240 177,179 198,177 198,236 212,233 222,87 202,89 198,156 176,158 173,86 "/>
</svg>
