<?xml version="1.0" encoding="utf-8"?>
<!-- Generator: Adobe Illustrator 23.1.0, SVG Export Plug-In . SVG Version: 6.00 Build 0)  -->
<svg version="1.1" xmlns="http://www.w3.org/2000/svg" xmlns:xlink="http://www.w3.org/1999/xlink" x="0px" y="0px"
	 viewBox="0 0 267.7 303.2" style="enable-background:new 0 0 267.7 303.2;" xml:space="preserve">
<style type="text/css">
	.st0{fill:#86C3D1;}
	.st1{display:none;fill:#86C3D1;stroke:#000000;stroke-width:8;stroke-miterlimit:10;}
	.st2{fill:#86C3D1;stroke:#000000;stroke-width:8;stroke-miterlimit:10;}
	.st3{fill:none;stroke:#000000;stroke-width:8;stroke-miterlimit:10;}
	.st4{display:none;}
	.st5{display:inline;fill:#EAEAEA;}
	.st6{display:inline;fill:#303030;}
</style>
<g id="Ebene_1">
	<path class="st0" d="M133.9,0l110.8,25l22.6,126.6l-23.8,121.3l-111.6,30.3L25.2,272.9L1,151.6L25,26L133.9,0z"/>
</g>
<g id="BACK_S">
	<path class="st1" d="M68.8,112.9l-23.9-8.3l27.1-4.4c0,0,12.3-17.6,28.3-11.7s13.9,29.3,13.9,29.3s-4.8,8,5.9,13.9
		c10.7,5.9,12.8,6.9,12.8,6.9s77.2-34.9,79.5-30.9s-18.8,10.8-16,14.9s16.5-5.9,19.2-2.7s-28.8,13.3-26.7,16.5s20.3-4.8,20.3-4.8
		l-26.7,18.1c0,0-5.9,2.7-0.5,5.9c5.3,3.2,63.3,9.6,62.9,13.9s-39.5-3.7-38.4,0c1.1,3.7,32,8,32,10.7s-38.9-6.4-36.8-2.7
		c2.1,3.7,25.6,5.3,26.1,8c0.5,2.7-41-1.6-41-1.6l-28.8-8.3"/>
	<g>
		<path class="st2" d="M147.3,135.9c10.9,6.4,10.8,24.6,4.3,29.9c-8.9,7.1-34.1-5.9-33.6-16.5C118.3,140.8,135.3,128.9,147.3,135.9z
			"/>
		<path class="st3" d="M163.4,84c4.5-4.2-13.3-29.9-11.7-30.9c2-1.3,28.7,42.2,37.4,38.4c6.3-2.7,0.9-29.2,2-29.4
			c1.5-0.2,6.7,45.8,13.3,45.9c4.3,0,7.6-19,9.1-18.7c2.1,0.4-6.9,38.1,1.1,41.6c5.3,2.3,16.2-11.5,17.1-10.7
			c1.2,1.1-23.7,26-19.2,32.5c3.1,4.5,18.4-2.5,20.3,1.1c2.6,5-25.8,21.8-22.9,28.3c2.1,4.7,19.3,0.6,19.7,2.7
			c0.7,3.1-39.1,13.3-38.4,17.1c0.6,3.2,29.8,0.5,29.9,1.6c0.1,1.4-48.1,4.5-48.5,11.7c-0.3,5,22.2,10,21.9,11.2
			c-0.5,1.7-44.9-10.6-46.9-5.3c-1.2,3.2,13.8,12,13.3,12.8c-0.7,1.1-32.9-21.5-38.9-15.5c-3.7,3.6,3.4,16.5,2.1,17.1
			c-1.8,0.8-11.9-25-21.3-24c-5.7,0.6-7.3,10.6-11.2,10.1c-6.4-0.7-6.6-27.8-12.3-28.3c-4-0.3-7.6,13.4-10.1,12.8
			c-3.2-0.7,2.1-23.8-4.3-26.7c-5.4-2.4-15.8,11.1-17.6,9.6c-2.4-1.9,15.5-25.6,11.7-29.3c-2.9-2.9-16.7,8.1-18.7,5.9
			c-2.8-3.1,22.6-26.6,18.7-32c-2.8-4-19.8,3.8-20.3,2.7c-0.7-1.7,38.9-16.6,37.3-23.5c-1.1-5-24-3.8-24-5.3c0-2,38.9-1.9,40-9.1
			c0.8-5.3-19.5-11.8-18.7-14.4c1.1-3.3,33.7,5.7,35.2,1.6c1.1-3.2-16.9-11.9-16-13.9c1.2-2.6,34.2,12.2,37.3,6.9
			c2.3-3.9-13-16.5-11.7-18.1C120.1,58.1,157.8,89.3,163.4,84z"/>
	</g>
</g>
<g id="FRONT" class="st4">
	<path class="st5" d="M243.5,21.6l-21.7,233.8l-86.7,25.5l-3-260.3L243.5,21.6z"/>
	<polygon class="st6" points="75.6,30.5 79.3,61.5 96.9,59.4 118,73 110.4,9.3 93.2,28.4 	"/>
	<polygon class="st6" points="38,85 51,239 75,249 70,188 103,255 121,255 79.5,163 121,85 86,85 70,126 60,85 	"/>
	<polygon class="st6" points="155,86 155,245 172,240 177,179 198,177 198,236 212,233 222,87 202,89 198,156 176,158 173,86 	"/>
	<polygon class="st6" points="121,26.9 157.9,9.3 160.9,12.7 123.8,28.7 	"/>
	<polygon class="st6" points="124.9,40.5 166.5,37.8 168.6,42.9 128.1,43.7 	"/>
	<polygon class="st6" points="127.8,59.4 160.9,71.9 161.7,67.7 129.9,56.7 	"/>
</g>
</svg>
